<mxfile host="app.diagrams.net" modified="2023-06-06T12:52:41.197Z" agent="Mozilla/5.0 (X11; Linux x86_64) AppleWebKit/537.36 (KHTML, like Gecko) Chrome/114.0.0.0 Safari/537.36" version="21.3.7" etag="01-4zLLUd7Qh5W1e-3QS" type="github">
  <diagram name="Page-1" id="EyojMC1TXimRZhqLNDEH">
    <mxGraphModel>
      <root>
        <mxCell id="0" />
        <mxCell id="1" parent="0" />
      </root>
    </mxGraphModel>
  </diagram>
</mxfile>
